<svg width="1200" height="1200" viewBox="0 0 1200 1200" fill="none" xmlns="http://www.w3.org/2000/svg">
<mask id="mask0_410_1945" style="mask-type:alpha" maskUnits="userSpaceOnUse" x="0" y="0" width="1197" height="1197">
<circle className='animate-spin' cx="598.033" cy="598.033" r="598.033" fill="#D9D9D9"/>
</mask>
<g mask="url(#mask0_410_1945)">
<path d="M925.883 1091.76C923.138 1093.73 920.001 1095.69 917.256 1097.65C914.118 1099.61 911.373 1101.57 908.236 1103.14C905.491 1104.71 903.138 1106.27 900.393 1107.84C900.001 1108.24 899.609 1108.24 899.216 1108.63C890.197 1114.12 880.785 1119.22 871.373 1123.92C868.628 1125.49 865.491 1127.06 862.746 1128.24C862.746 1128.24 862.354 1128.63 861.962 1128.63C858.824 1130.2 855.687 1131.76 852.55 1133.33C846.275 1136.47 839.609 1139.22 833.334 1141.96C830.197 1143.53 826.667 1144.71 823.53 1145.88C820.393 1147.06 816.864 1148.63 813.726 1149.8C810.589 1150.98 807.06 1152.55 803.922 1153.73C803.922 1153.73 803.922 1153.73 803.53 1153.73C800.393 1154.9 796.864 1156.08 793.726 1157.25C786.667 1159.61 779.216 1161.96 772.158 1164.31C769.805 1165.1 767.06 1165.88 764.707 1166.67C757.256 1169.02 749.805 1170.98 742.354 1172.55C739.609 1173.33 736.864 1173.73 733.726 1174.51C726.667 1176.08 719.216 1177.65 712.158 1179.22C710.589 1179.61 709.413 1179.61 707.844 1180C705.491 1180.39 702.746 1180.78 700.393 1181.18C696.864 1181.57 693.726 1182.35 690.197 1182.74C688.628 1183.14 687.06 1183.14 685.491 1183.53C683.53 1183.92 681.177 1184.31 678.824 1184.31C672.55 1185.1 665.883 1185.88 659.609 1186.67C657.648 1187.06 655.295 1187.06 653.334 1187.45H652.942C650.197 1187.84 647.452 1187.84 644.707 1188.24C641.962 1188.63 639.217 1188.63 636.471 1188.63C634.903 1188.63 632.942 1189.02 631.373 1189.02C628.236 1189.02 625.491 1189.41 622.746 1189.41C618.824 1189.41 615.295 1189.8 611.373 1189.8C607.452 1189.8 603.922 1189.8 600.001 1189.8C597.256 1189.8 594.511 1189.8 591.765 1189.8C426.275 1187.45 277.648 1117.25 171.373 1005.88C171.373 1005.88 171.373 1005.49 170.981 1005.49C159.216 994.902 169.413 938.431 216.864 902.745C276.471 857.647 419.217 829.412 419.217 829.412C419.217 829.412 474.511 820.392 679.609 863.137C799.609 888.235 890.981 924.706 941.962 1023.53C952.55 1043.92 963.138 1075.29 925.883 1091.76Z" fill="white"/>
<path d="M680.785 858.823C756.079 874.118 836.471 890.588 898.432 940.392C919.216 957.255 932.942 981.961 944.315 1005.88C949.805 1017.65 955.295 1029.8 959.609 1042.75C961.962 1051.37 965.491 1061.18 963.53 1071.37C963.138 1074.12 960.785 1077.65 958.824 1079.61C949.805 1088.63 940.001 1094.12 930.197 1101.18C872.55 1141.18 806.275 1169.41 737.648 1184.31C584.707 1217.65 419.216 1191.76 284.707 1111.37C240.001 1084.31 198.824 1051.37 163.53 1012.55C159.609 1007.84 159.609 1000 159.609 994.902C160.001 983.137 163.138 971.765 167.06 961.176C176.471 936.863 188.628 912.549 209.413 895.686C224.315 885.49 240.393 876.863 256.864 869.804C308.628 847.843 363.138 832.549 419.216 826.274C423.922 825.882 424.707 832.549 420.001 833.333C366.275 844.314 312.942 860.784 263.138 883.137C245.099 892.157 225.883 900 211.373 914.118C197.648 929.02 187.844 947.451 180.001 966.274C174.903 977.647 171.373 995.686 172.942 1004.71C197.648 1034.12 226.667 1060 258.04 1082.35C429.805 1202.35 690.589 1210.2 873.334 1110.2C889.805 1101.18 905.883 1090.98 921.177 1080.39C928.628 1075.29 936.471 1070.98 942.354 1065.1C942.746 1064.71 942.354 1065.1 942.354 1065.49C942.354 1065.88 941.962 1066.27 941.962 1066.27C942.354 1061.57 940.785 1055.29 938.824 1049.02C931.765 1026.27 920.393 1002.35 908.236 981.569C889.02 950.588 856.471 930.98 823.53 915.294C800.785 904.706 776.863 896.471 752.55 888.627C728.236 880.784 703.53 874.118 678.824 868.235C672.55 866.667 674.511 857.647 680.785 858.823Z" fill="black"/>
<path d="M349.414 825.883C349.414 825.883 406.669 803.138 417.257 802.354L418.042 811.373C418.042 811.373 372.552 830.981 369.806 834.118C367.454 836.863 349.414 825.883 349.414 825.883Z" fill="black"/>
<path d="M1056.08 1334.9H64.3147C64.3147 1334.9 70.197 1152.94 129.805 1023.14C174.903 925.099 283.138 860.393 361.962 832.158C384.315 824.314 401.57 815.687 417.648 811.373C417.648 813.334 418.825 827.844 418.825 829.413C418.825 829.413 464.707 761.177 604.707 768.628C669.413 772.158 721.177 789.805 721.177 789.805C728.628 788.236 718.04 826.667 724.707 824.707C727.06 823.922 731.766 847.452 733.727 846.667C784.315 860.001 846.275 897.648 936.079 972.942C1038.04 1058.43 1056.08 1334.9 1056.08 1334.9Z" fill="black"/>
<path d="M865.099 936.079C890.439 936.079 910.982 915.537 910.982 890.197C910.982 864.857 890.439 844.314 865.099 844.314C839.759 844.314 819.217 864.857 819.217 890.197C819.217 915.537 839.759 936.079 865.099 936.079Z" fill="#FFFF8D"/>
<path d="M258.432 1334.9L240.785 1189.41" stroke="black" stroke-width="3" stroke-miterlimit="10" stroke-linecap="round" stroke-linejoin="round"/>
<path d="M943.529 1140C943.529 1140 931.764 1168.63 935.294 1197.26C938.823 1225.88 949.019 1267.84 934.509 1334.9" stroke="black" stroke-width="3" stroke-miterlimit="10" stroke-linecap="round" stroke-linejoin="round"/>
<path d="M349.411 825.886C356.862 823.533 369.803 825.886 373.725 832.552C389.019 857.65 425.882 930.984 441.176 1076.47C453.333 1190.2 434.901 1394.91 434.901 1394.91L54.1172 1376.87C54.1172 1376.87 65.4897 1183.53 98.8231 1053.73C131.764 927.846 217.254 871.376 349.411 825.886Z" fill="white"/>
<path d="M346.668 817.649C359.609 814.119 375.295 817.256 382.354 829.413C403.53 865.1 416.864 905.1 427.452 945.1C440.001 994.119 448.236 1044.32 452.55 1094.51C458.825 1195.3 452.942 1295.3 445.099 1396.08C444.707 1401.57 440.001 1405.49 434.511 1405.1L53.7265 1387.06C48.2363 1387.06 43.9226 1382.35 43.9226 1376.47C47.8442 1319.22 53.7265 1262.75 61.1775 1205.88C69.4128 1149.02 78.0403 1092.55 94.1187 1037.26C131.374 913.727 231.766 856.864 346.668 817.649ZM352.55 834.511C299.609 852.551 241.962 865.492 198.04 902.355C176.864 920.394 161.178 944.707 146.276 967.845C115.295 1014.51 104.315 1070.2 94.903 1125.1C80.3932 1208.63 71.7657 1293.33 64.7069 1377.65C64.7069 1377.65 54.903 1367.06 55.2952 1367.06L436.079 1385.1L425.491 1394.12C428.629 1344.32 431.766 1294.51 433.334 1244.71C438.432 1121.57 431.766 995.296 387.06 879.609C381.178 865.1 374.903 850.982 366.668 837.649C363.53 834.511 356.079 833.335 352.55 834.511Z" fill="black"/>
<path d="M743.923 849.804C743.923 849.804 865.099 1077.65 829.805 1381.96H1091.37C1091.37 1381.96 1090.2 1140.39 1031.37 1009.02C972.55 878.04 766.668 839.608 766.668 839.608C766.668 839.608 753.727 846.275 743.923 849.804Z" fill="white"/>
<path d="M753.334 853.334C754.511 852.157 754.903 849.804 754.511 848.236V847.844C756.472 852.157 758.824 856.471 760.785 860.785C817.256 986.667 844.707 1125.1 846.276 1262.75C846.668 1275.29 845.491 1301.96 845.099 1314.51C844.707 1334.9 841.177 1362.75 840.001 1383.14L830.197 1371.77H1091.77L1081.57 1381.96C1081.57 1352.94 1080 1323.53 1078.43 1294.51C1071.77 1196.08 1057.26 1025.49 988.628 952.55C935.295 895.295 841.177 860.785 765.099 849.412L771.374 848.628C765.883 851.373 759.609 854.118 754.119 856.471L750.981 857.648L750.197 858.04C751.374 857.648 752.942 855.295 753.334 853.334ZM734.511 846.275C736.079 843.53 739.609 840.393 743.138 839.216L745.883 838.04C751.374 835.687 757.256 832.942 762.746 830.197C764.707 829.412 766.668 829.02 768.628 829.804C783.53 834.118 797.648 838.432 811.766 843.138C825.883 848.236 839.609 853.334 853.334 859.216C894.119 876.863 934.119 897.648 968.236 925.883C995.687 948.236 1023.14 972.942 1038.43 1005.88C1066.28 1069.02 1079.22 1137.26 1088.63 1205.1C1096.86 1263.92 1100.79 1322.75 1101.57 1381.96C1101.57 1387.45 1097.26 1392.16 1091.37 1392.16H829.805C823.923 1392.16 819.217 1386.67 820.001 1380.78C821.57 1360.39 824.707 1333.33 825.099 1313.33C825.491 1301.18 826.668 1274.51 826.275 1262.75C825.491 1144.71 803.53 1026.28 761.962 915.687C754.511 896.079 746.275 876.471 737.256 858.04C734.903 854.903 733.726 849.804 734.511 846.275Z" fill="black"/>
<path d="M743.921 849.804L734.509 847.059C734.509 847.059 748.235 840.392 754.117 836.471L757.647 834.51C757.647 834.51 776.47 843.137 783.137 846.274C789.803 849.412 759.999 863.922 759.999 863.922C759.999 863.922 745.097 850.196 743.921 849.804Z" fill="black"/>
<path d="M316.864 960.393C316.864 960.393 262.746 998.432 267.844 1038.82C272.942 1079.22 439.609 1332.16 439.609 1332.16C439.609 1332.16 459.217 1194.9 436.864 1039.61C436.864 1039.61 420.785 1018.04 391.374 996.471C371.766 982.746 347.06 968.628 316.864 960.393Z" fill="white"/>
<path d="M318.825 970.589C320.001 970.589 321.177 969.805 322.354 969.02L321.57 969.412C299.217 983.53 271.766 1009.02 273.726 1037.65C276.079 1049.8 282.746 1061.96 288.628 1073.33C301.177 1097.26 314.903 1120.78 329.021 1144.31C357.256 1190.98 387.06 1236.86 417.648 1281.96L448.628 1327.06L430.197 1330.98C433.334 1307.45 435.295 1283.14 436.472 1258.82C440.393 1186.28 437.648 1113.33 427.452 1041.57L429.413 1046.28C414.903 1028.24 396.864 1012.55 378.04 999.608C360.393 987.844 341.57 978.432 321.177 972.157L320.393 971.765C319.217 971.373 319.217 970.981 318.825 970.589ZM315.295 950.589C318.825 950.981 323.138 951.765 326.668 952.942C360.785 963.53 392.158 982.354 418.825 1006.28C428.628 1014.9 436.864 1023.53 445.491 1034.12C446.668 1035.29 447.06 1036.86 447.452 1038.43C457.648 1111.77 460.393 1185.88 456.864 1260C455.687 1284.71 453.726 1309.02 450.589 1334.12C449.805 1343.53 436.864 1346.28 432.158 1338.04C405.883 1294.12 373.726 1241.18 347.844 1197.26C331.374 1169.02 308.236 1130.59 292.942 1102.35C284.315 1086.28 275.295 1070.2 268.628 1052.94C265.883 1046.67 264.315 1038.82 264.315 1031.37C267.06 1000 289.805 975.687 310.589 953.726C310.981 952.158 313.334 950.981 315.295 950.589Z" fill="black"/>
<path d="M950.197 1039.22C951.766 1014.12 893.727 973.335 893.727 973.335C870.589 980.002 854.119 990.59 842.354 1001.96C816.079 1026.67 812.55 1054.51 812.55 1054.51L814.119 1061.57C841.962 1182.75 833.727 1340.39 833.727 1340.39C833.727 1340.39 948.629 1064.32 950.197 1039.22Z" fill="white"/>
<path d="M945.49 1038.82C943.529 1015.69 907.058 991.766 887.842 981.57L896.47 983.139C861.176 992.942 829.803 1019.22 822.352 1056.08L821.96 1052.16C827.45 1075.69 832.156 1100 834.901 1123.92C844.313 1196.08 846.274 1268.24 843.529 1340.79C843.529 1341.18 824.313 1336.47 824.313 1336.47C844.313 1294.51 870.587 1232.16 889.019 1188.63C899.607 1163.92 909.411 1138.82 919.215 1113.73C928.627 1089.02 939.607 1064.32 945.49 1038.82ZM952.548 1039.22C950.195 1052.94 945.097 1065.49 940.784 1078.43C927.45 1116.47 912.156 1154.12 898.431 1192.16C885.489 1226.67 861.568 1290.59 849.411 1324.71L842.744 1343.92C838.823 1354.9 822.352 1351.37 823.529 1339.61C826.274 1268.63 824.313 1196.86 814.901 1126.28C812.156 1102.75 807.45 1079.61 802.352 1056.86C801.568 1052.55 803.137 1048.24 804.313 1044.31C815.686 1004.31 851.764 974.511 890.98 963.923C894.117 962.746 897.254 963.531 899.607 965.491C908.627 975.688 922.352 989.021 930.98 999.609C939.999 1010.59 952.548 1023.14 952.548 1039.22Z" fill="black"/>
<path d="M812.552 1052.16C812.552 1052.16 786.277 950.197 773.336 917.648C760.395 885.491 736.081 849.021 734.905 847.06C652.16 769.021 500.787 769.021 530.199 740.001C562.748 707.844 697.65 729.805 746.669 754.119C790.591 777.256 976.473 885.099 982.748 921.178C989.022 961.178 836.866 958.825 812.552 1052.16Z" fill="white"/>
<path d="M812.55 1062.35C808.236 1061.96 803.53 1058.04 802.354 1053.73V1053.33L801.962 1051.77L801.177 1048.63L799.609 1041.96C789.413 1002.75 779.609 961.569 766.275 923.53C756.864 898.432 743.138 874.902 728.628 851.765L729.805 852.942C715.687 839.216 698.824 828.236 681.57 818.432C645.883 799.216 607.06 787.059 568.236 775.687C554.903 770.589 522.354 765.098 520.393 748.628C520.393 731.373 547.06 723.922 559.609 721.569C611.373 713.726 664.315 723.138 714.119 736.863C726.668 740.785 739.217 745.098 750.981 750.981C755.295 753.334 767.06 760 771.373 762.353C807.06 782.745 841.962 804.314 876.472 827.059C910.981 849.804 945.883 871.765 974.903 901.961C998.432 926.275 984.315 941.961 958.432 953.334C921.57 969.804 881.177 981.177 851.373 1008.24C840.785 1018.04 832.158 1029.41 827.06 1042.35C825.099 1046.67 825.099 1048.63 823.138 1053.73C821.177 1056.86 816.079 1061.18 812.55 1062.35ZM812.55 1042.35C810.197 1040.78 805.883 1042.35 804.707 1044.31C803.922 1045.88 804.707 1044.31 805.099 1043.92C806.275 1040.78 807.844 1037.26 809.413 1034.12C837.648 979.608 902.354 965.883 954.119 944.314C974.119 935.295 989.021 927.451 968.236 906.667C939.609 877.647 904.315 856.471 870.197 834.902C835.295 813.726 799.609 793.726 763.53 774.51L750.197 767.451C719.609 750.981 685.099 743.922 650.981 738.432C621.177 734.51 558.432 727.451 536.472 748.628C536.472 748.628 536.864 747.844 536.864 746.667C536.864 745.491 536.472 745.098 536.472 744.706C536.472 744.706 537.648 745.883 539.217 746.667C549.413 752.157 561.177 755.295 572.942 758.824C612.55 770.589 652.942 782.745 689.805 802.745C709.021 813.334 727.844 825.491 743.53 841.569C758.824 865.098 773.334 889.804 783.922 916.079C798.04 955.295 808.236 996.079 819.217 1036.08L820.785 1042.75L821.57 1046.27L821.962 1047.84V1048.24C821.177 1044.71 816.079 1041.57 812.55 1042.35Z" fill="black"/>
<path d="M436.865 1040C436.865 1040 409.414 1010.98 376.473 990.587C303.532 945.489 196.473 924.705 195.296 889.803C194.512 850.587 324.708 768.627 410.983 740.783C540.786 704.705 557.649 747.45 559.218 765.489C560.002 774.117 418.434 819.607 419.218 828.627V829.019C419.218 829.019 401.179 834.901 414.12 924.705C417.257 947.058 430.983 985.489 436.865 1040Z" fill="white"/>
<path d="M441.179 1049.02C437.649 1050.59 431.767 1049.41 429.022 1046.27L428.63 1045.49L427.453 1044.31C426.277 1042.74 421.963 1038.43 420.394 1037.25C410.982 1027.84 400.786 1018.43 390.59 1010.2C362.355 987.45 329.022 972.548 296.081 957.646C270.59 946.666 244.316 936.862 220.002 923.137C181.963 901.96 183.924 880.784 212.551 850.98C252.551 811.764 300.394 781.568 350.59 756.862C369.414 747.843 389.022 739.607 409.022 733.333C452.551 721.568 554.512 698.823 565.492 763.137C565.492 764.313 565.884 765.097 565.492 766.666C565.1 768.235 564.316 769.019 563.924 769.803C559.218 774.509 552.943 776.862 547.453 779.215C521.963 789.803 495.688 798.431 469.414 807.45C453.335 813.333 436.473 818.039 421.571 826.274C420.786 827.058 419.61 827.842 420.002 829.019C412.943 834.901 413.335 845.49 412.159 853.725C411.375 879.999 415.688 907.45 421.571 932.941C428.63 958.431 437.257 985.097 442.355 1011.37C443.924 1019.61 446.277 1027.06 445.884 1035.29C445.1 1040.39 443.139 1045.49 441.179 1049.02ZM432.551 1030.98C430.59 1029.41 427.061 1029.8 425.492 1031.37C423.532 1017.25 421.179 1003.14 418.041 989.019C412.551 963.137 403.924 936.078 401.571 909.019L400.394 895.294C399.218 875.294 396.081 838.431 410.983 823.137C412.159 822.352 412.159 821.568 416.081 819.999L409.022 829.411C408.63 827.45 410.59 822.744 411.375 821.96C413.728 818.823 415.688 818.039 418.433 816.078C432.943 807.843 448.63 802.352 463.924 796.078C481.179 789.411 523.924 772.941 540.394 765.882C543.924 764.313 548.63 762.352 551.375 760.392C550.59 761.568 550.198 761.568 549.414 764.313C549.022 765.097 549.414 768.627 549.022 766.666C543.532 730.588 487.061 736.862 459.61 740.784C405.884 749.411 356.081 770.588 308.237 796.47C276.865 814.117 245.1 832.941 219.218 858.431C210.59 867.45 200.786 877.646 200.002 889.803C201.963 907.45 234.12 919.215 249.022 926.666C282.747 941.176 317.649 953.333 350.983 969.019C380.786 982.745 408.63 1001.57 433.335 1023.14C436.081 1025.49 440.786 1029.8 443.139 1032.16C442.747 1031.37 440.002 1029.8 437.649 1029.41C436.081 1029.8 434.12 1030.2 432.551 1030.98Z" fill="black"/>
<path d="M717.644 963.138C709.409 1003.53 656.075 1027.84 566.271 991.373C472.938 953.726 432.546 863.922 422.35 837.255C477.644 733.726 439.213 661.961 439.213 661.961C566.664 650.981 678.036 800 678.036 800L695.291 873.726C696.86 880 699.997 885.491 704.703 889.412C712.938 903.922 722.742 937.255 717.644 963.138Z" fill="white"/>
<path d="M420.391 838.431C427.842 827.059 432.548 813.726 435.685 800.784C441.567 773.726 443.528 746.275 443.92 718.824V708.627C442.744 698.431 439.214 687.843 435.293 678.431C430.195 665.882 448.626 658.039 454.508 670.588C455.293 672.157 455.293 674.902 455.293 676.471C456.469 729.804 458.822 798.431 425.097 842.745C422.744 845.098 418.038 841.569 420.391 838.431Z" fill="black"/>
<path d="M682.35 799.216C688.233 802.746 690.194 807.452 690.978 812.158C693.331 821.569 692.546 831.766 694.899 841.569C696.86 850.981 702.743 860.001 704.311 869.805C706.272 880.001 712.154 901.569 714.507 912.158C715.292 914.511 713.723 917.256 710.978 917.648C709.409 918.04 708.233 917.648 707.056 916.864C701.958 912.55 699.605 908.236 696.468 902.746C691.37 893.334 687.841 884.707 684.703 874.118C681.958 864.707 683.135 854.511 680.782 844.707C678.821 835.295 673.331 826.275 671.37 816.471C670.194 811.765 669.801 806.667 673.331 800.785C675.684 798.432 679.605 797.648 682.35 799.216Z" fill="black"/>
<path d="M710.587 902.746C635.685 898.824 574.508 875.295 514.901 769.021C565.097 813.334 624.312 830.197 686.665 838.04L694.901 874.118C696.469 880.393 705.881 898.824 710.587 902.746Z" fill="black"/>
<path d="M707.451 888.236C720.785 913.334 728.628 944.707 720.392 972.55C714.118 992.158 696.079 1006.67 676.471 1012.16C630.981 1024.31 578.432 1005.1 538.039 983.53C488.236 955.687 451.373 909.02 427.843 858.04C426.275 854.118 431.765 850.981 434.118 854.903C442.353 871.373 451.765 887.452 462.353 901.962C472.941 916.864 485.098 930.589 498.824 942.746C538.824 978.824 592.941 1001.18 647.059 1001.18C702.745 999.609 723.922 970.197 710.981 916.079C709.02 907.452 705.883 898.432 701.569 890.981C699.216 887.844 705.098 884.315 707.451 888.236Z" fill="black"/>
<path d="M859.214 417.255C866.273 450.196 860.783 472.157 857.645 563.137C854.508 652.549 828.626 778.824 796.861 810.588C772.547 834.51 694.508 853.334 625.096 835.686C589.802 826.667 559.998 806.275 535.685 791.765C505.096 773.333 478.43 716.471 456.469 680C439.214 651.373 440.783 685.883 418.43 661.177C387.449 627.451 350.194 559.608 368.626 439.608C398.43 245.098 552.547 222.353 666.665 243.922C781.567 265.49 840.391 330.588 859.214 417.255Z" fill="white"/>
<path d="M438.039 695.686C429.02 680.784 417.255 667.451 406.667 653.333C390.981 631.765 379.216 607.059 371.373 581.569C337.255 472.549 358.039 329.804 461.177 265.49C554.902 205.882 736.863 227.451 812.941 309.02C841.569 338.431 860 376.863 867.843 416.863C868.236 419.216 869.412 423.529 869.804 425.882C870.196 427.843 871.373 430.196 870.981 432.549C870.196 441.177 868.628 449.804 867.843 458.431C861.961 510.588 863.53 563.922 856.863 616.078C850.981 670.98 843.138 725.882 826.667 778.824C821.569 794.902 811.765 809.412 798.824 820C769.804 844.314 731.765 852.549 695.294 854.118C622.353 857.647 548.236 831.765 505.883 770.196C504.314 767.843 507.451 765.098 509.412 767.451C544.706 805.49 592.549 829.804 643.53 835.294C700 841.961 785.098 836.863 809.804 776.471C838.432 690.98 853.334 600.392 854.902 510.588C854.902 488.627 853.726 466.667 853.726 444.314C853.726 441.569 854.118 435.294 854.118 432.549C854.118 432.549 854.118 432.157 854.118 432.549C854.118 432.941 854.118 432.941 854.118 432.549C850.981 424.706 849.804 416.078 847.451 408.235C838.824 375.686 823.138 344.706 800.785 320C726.667 236.863 561.569 216.078 469.02 278.431C395.686 327.059 376.079 420.392 370.981 502.745C366.667 564.314 384.706 624.706 431.373 667.059L449.804 686.275C457.647 694.902 444.314 705.098 438.039 695.686Z" fill="black"/>
<path d="M484.315 570.98C484.315 570.98 472.158 512.156 414.904 519.215C365.492 525.489 348.237 643.921 460.394 676.862" fill="white"/>
<path d="M455.293 625.491C446.273 620.393 439.999 611.766 439.606 601.177C439.999 593.334 441.175 584.315 439.214 576.471C438.038 569.021 430.195 567.06 424.312 567.452C418.038 568.628 414.116 576.472 412.94 582.746C412.94 583.138 412.548 584.315 412.548 584.707C412.155 586.668 409.018 586.668 408.234 584.707C403.136 569.413 414.508 552.55 430.979 554.511C454.116 556.079 457.253 580.393 452.94 598.824C450.587 606.668 453.724 613.726 458.038 620.393L458.822 621.57C460.783 623.922 457.646 627.06 455.293 625.491Z" fill="black"/>
<path d="M769.022 529.412C774.904 557.255 785.885 583.137 799.61 607.451C811.767 637.255 780.394 665.49 752.551 664.314C749.414 664.314 749.022 660 751.767 659.216C769.414 653.726 785.492 641.961 788.237 623.922C789.414 618.432 787.845 613.726 785.1 609.02C772.159 584.706 764.316 556.863 766.277 529.412C766.277 527.451 769.022 527.451 769.022 529.412Z" fill="black"/>
<path d="M482.353 571.373C473.334 548.235 453.726 526.275 427.451 526.667C425.098 526.275 421.177 527.059 418.824 527.059C412.157 527.451 406.667 529.804 401.569 534.51C376.471 559.608 380.785 603.922 401.177 631.765C408.236 641.569 417.255 650.196 427.451 657.255C437.647 664.314 449.02 669.804 461.177 674.51C463.922 675.294 462.745 679.608 460 679.216C433.726 673.725 408.628 660.784 391.373 639.216C364.706 607.059 359.216 553.333 390.981 521.961C398.039 515.686 407.843 510.98 417.647 510.98C420.785 510.98 425.49 510.196 428.628 510.98C445.098 511.765 460.785 520 470.981 532.941C480 543.922 485.098 557.255 486.667 570.588C486.667 572.941 483.138 573.725 482.353 571.373Z" fill="black"/>
<path d="M739.216 703.53C714.118 727.451 666.667 708.236 654.118 679.216C652.549 675.687 656.471 672.549 659.608 674.118C666.275 677.647 672.157 681.177 678.432 683.922C696.471 692.157 715.294 698.824 735.294 696.863C739.216 696.079 741.961 700.785 739.216 703.53Z" fill="black"/>
<path d="M622.746 569.411C613.334 569.019 606.275 561.176 607.06 551.764L607.452 540.784C607.844 531.372 615.687 524.313 625.099 525.098C634.511 525.49 641.57 533.333 640.785 542.745L640.393 553.725C640.001 562.745 632.158 569.804 622.746 569.411Z" fill="black"/>
<path d="M787.843 575.294C779.215 574.902 772.549 567.451 772.941 558.823L773.333 548.627C773.725 540 781.176 533.333 789.803 533.725C798.431 534.118 805.098 541.569 804.705 550.196L804.313 560.392C803.921 569.02 796.47 575.686 787.843 575.294Z" fill="black"/>
<path d="M658.04 548.235C645.099 539.607 630.981 533.725 615.295 536.862C610.197 537.647 605.099 539.215 601.962 542.745C600.785 544.313 598.04 543.921 598.04 541.568C598.432 533.725 605.099 528.627 611.373 525.49C623.53 519.215 640.393 520.392 651.373 528.627C655.295 530.98 668.628 545.49 661.569 548.627C660.001 549.411 659.217 549.019 658.04 548.235Z" fill="black"/>
<path d="M770.197 550.196C770.197 533.726 790.589 527.843 803.138 533.726C810.197 536.863 815.295 543.137 817.256 550.588C818.04 552.941 814.511 554.902 812.942 552.941C806.275 545.098 794.903 541.177 785.883 545.882C783.138 547.451 782.746 548.628 781.962 550.196C781.962 558.039 770.589 557.647 770.197 550.196Z" fill="black"/>
<path d="M676.864 483.529C685.099 486.274 693.334 478.823 691.766 469.804C690.981 465.098 689.02 460.392 685.099 456.863C673.334 446.274 624.707 436.863 595.295 450.588C569.413 463.137 639.217 470.98 676.864 483.529Z" fill="black"/>
<path d="M794.12 489.804C787.453 492.157 780.394 485.098 781.571 476.863C781.963 472.549 783.532 468.236 786.669 465.098C796.081 455.687 828.237 448.236 848.63 462.745C866.277 474.902 824.708 478.432 794.12 489.804Z" fill="black"/>
<path d="M889.021 323.922C916.864 223.138 803.923 160 773.726 205.491C751.766 238.432 667.06 212.942 538.432 210.589C409.805 207.843 375.295 276.079 373.726 349.412C373.726 349.412 317.256 379.216 320.785 484.314C324.315 593.334 436.472 681.177 450.197 736.471C450.197 736.471 451.766 743.53 436.864 667.843C351.374 626.667 369.413 525.098 415.295 519.216C450.197 514.902 468.628 535.294 477.256 551.765C480.785 556.471 514.119 597.255 514.903 463.922C515.295 372.942 603.923 343.138 704.707 380C757.256 399.216 812.55 413.334 850.589 385.883C856.864 403.922 863.53 423.922 858.432 448.236C873.726 434.118 886.668 413.334 890.197 387.843C892.55 372.549 888.628 359.216 880.001 347.451C883.53 340.785 886.668 332.549 889.021 323.922Z" fill="black"/>
<path d="M1130.2 330.588C1368.24 789.02 949.804 1306.27 450.981 1180C227.059 1124.31 47.0589 930.196 9.80403 702.353C-32.5489 475.686 69.804 232.157 261.177 103.922C523.53 -76.4704 887.059 -16.4704 1074.9 241.569C1076.08 242.745 1075.69 244.706 1074.12 245.883C1072.94 247.059 1070.98 246.667 1069.8 245.098C1043.92 211.765 1014.51 181.569 982.353 154.51C929.412 109.412 867.451 74.1179 801.961 50.1963C468.628 -70.588 102.745 130.196 29.804 478.824C-52.5489 869.412 279.608 1229.02 675.686 1175.29C981.177 1136.86 1208.24 854.902 1183.14 548.235C1177.65 474.118 1158.04 400.785 1125.49 333.334C1124.71 332.157 1125.49 330.588 1126.67 329.804C1127.84 329.02 1129.41 329.412 1130.2 330.588Z" fill="white"/>
</g>
</svg>
